<svg xmlns="http://www.w3.org/2000/svg" viewBox="0 0 512 512" role="img" aria-label="Campfire">
  <title>Campfire</title>
  <rect width="512" height="512" rx="108" fill="#1b1722"/>
  <g transform="translate(47.07 37.05) scale(0.8161)">
  <g fill="rgba(184,174,198,0.14)" stroke="#5b5470" stroke-width="1.5" stroke-linejoin="round"
     transform="matrix(5.12,0,0,5.12,0,0)">
    <path d="M31.81,8L40.91,13.25L40.91,23.75L31.81,29L22.72,23.75L22.72,13.25L31.81,8Z" fill-rule="nonzero"/><path d="M50,8L59.09,13.25L59.09,23.75L50,29L40.91,23.75L40.91,13.25L50,8Z" fill-rule="nonzero"/><path d="M68.19,8L77.28,13.25L77.28,23.75L68.19,29L59.09,23.75L59.09,13.25L68.19,8Z" fill-rule="nonzero"/><path d="M22.72,23.75L31.81,29L31.81,39.5L22.72,44.75L13.63,39.5L13.63,29L22.72,23.75Z" fill-rule="nonzero"/><path d="M40.91,23.75L50,29L50,39.5L40.91,44.75L31.81,39.5L31.81,29L40.91,23.75Z" fill-rule="nonzero"/><path d="M59.09,23.75L68.19,29L68.19,39.5L59.09,44.75L50,39.5L50,29L59.09,23.75Z" fill-rule="nonzero"/><path d="M77.28,23.75L86.37,29L86.37,39.5L77.28,44.75L68.19,39.5L68.19,29L77.28,23.75Z" fill-rule="nonzero"/><path d="M13.63,39.5L22.72,44.75L22.72,55.25L13.63,60.5L4.53,55.25L4.53,44.75L13.63,39.5Z" fill-rule="nonzero"/><path d="M31.81,39.5L40.91,44.75L40.91,55.25L31.81,60.5L22.72,55.25L22.72,44.75L31.81,39.5Z" fill-rule="nonzero"/><path d="M68.19,39.5L77.28,44.75L77.28,55.25L68.19,60.5L59.09,55.25L59.09,44.75L68.19,39.5Z" fill-rule="nonzero"/><path d="M86.37,39.5L95.47,44.75L95.47,55.25L86.37,60.5L77.28,55.25L77.28,44.75L86.37,39.5Z" fill-rule="nonzero"/><path d="M22.72,55.25L31.81,60.5L31.81,71L22.72,76.25L13.63,71L13.63,60.5L22.72,55.25Z" fill-rule="nonzero"/><path d="M40.91,55.25L50,60.5L50,71L40.91,76.25L31.81,71L31.81,60.5L40.91,55.25Z" fill-rule="nonzero"/><path d="M59.09,55.25L68.19,60.5L68.19,71L59.09,76.25L50,71L50,60.5L59.09,55.25Z" fill-rule="nonzero"/><path d="M77.28,55.25L86.37,60.5L86.37,71L77.28,76.25L68.19,71L68.19,60.5L77.28,55.25Z" fill-rule="nonzero"/><path d="M31.81,71L40.91,76.25L40.91,86.75L31.81,92L22.72,86.75L22.72,76.25L31.81,71Z" fill-rule="nonzero"/><path d="M50,71L59.09,76.25L59.09,86.75L50,92L40.91,86.75L40.91,76.25L50,71Z" fill-rule="nonzero"/><path d="M68.19,71L77.28,76.25L77.28,86.75L68.19,92L59.09,86.75L59.09,76.25L68.19,71Z" fill-rule="nonzero"/>
  </g>
  <g transform="matrix(5.12,0,0,5.12,27.6332,14.3245)">
    <path d="M62,12C64,33 86,41 86,62C86,81 73,94 57,94C41,94 30,81 30,65C30,54 36,47 44,44C44,52 49,57 55,55C48,47 51,30 62,12Z" fill="#fb923c" stroke="#1b1722" stroke-width="1.5"
          stroke-linejoin="round" fill-rule="nonzero"/>
  </g></g>
</svg>
