<?xml version="1.0" encoding="UTF-8" standalone="no"?>
<!DOCTYPE svg PUBLIC "-//W3C//DTD SVG 1.1//EN" "http://www.w3.org/Graphics/SVG/1.1/DTD/svg11.dtd">
<svg width="100%" height="100%" viewBox="0 0 512 512" version="1.1" xmlns="http://www.w3.org/2000/svg" xmlns:xlink="http://www.w3.org/1999/xlink" xml:space="preserve" xmlns:serif="http://www.serif.com/" style="fill-rule:evenodd;clip-rule:evenodd;stroke-linecap:round;stroke-linejoin:round;stroke-miterlimit:1.5;">
    <g>
        <path d="M256,7.53L471.181,131.765L471.181,380.235L256,504.47L40.819,380.235L40.819,131.765L256,7.53Z" style="fill:rgb(24,20,28);stroke:rgb(240,137,46);stroke-width:3.96px;"/>
        <path d="M241.888,428.965L436.069,363.821" style="fill:none;stroke:rgb(33,27,38);stroke-width:6.25px;stroke-miterlimit:1;"/>
        <path d="M448.09,389.995L436.069,363.821" style="fill:none;stroke:rgb(33,27,38);stroke-width:6.25px;stroke-miterlimit:1;"/>
        <path d="M468.689,295.843L436.069,363.821" style="fill:none;stroke:rgb(33,27,38);stroke-width:6.25px;stroke-miterlimit:1;"/>
        <path d="M333.377,104.66L467.475,172.39" style="fill:none;stroke:rgb(33,27,38);stroke-width:6.25px;stroke-miterlimit:1;"/>
        <path d="M333.377,104.66L314.326,44.16" style="fill:none;stroke:rgb(33,27,38);stroke-width:6.25px;stroke-miterlimit:1;"/>
        <path d="M242.008,429.836L95.744,409.888" style="fill:none;stroke:rgb(33,27,38);stroke-width:6.25px;stroke-miterlimit:1;"/>
        <path d="M242.008,429.836L418.929,104.928" style="fill:none;stroke:rgb(33,27,38);stroke-width:6.25px;stroke-miterlimit:1;"/>
        <path d="M242.008,429.836L43.148,240.731" style="fill:none;stroke:rgb(33,27,38);stroke-width:6.25px;stroke-miterlimit:1;"/>
        <path d="M242.008,429.836L228.3,485.166" style="fill:none;stroke:rgb(33,27,38);stroke-width:6.25px;stroke-miterlimit:1;"/>
        <path d="M152.921,173.815L331.192,105.966" style="fill:none;stroke:rgb(33,27,38);stroke-width:6.25px;stroke-miterlimit:1;"/>
        <path d="M152.921,173.815L150.19,70.891" style="fill:none;stroke:rgb(33,27,38);stroke-width:6.25px;stroke-miterlimit:1;"/>
        <path d="M152.921,173.815L45.706,141.393" style="fill:none;stroke:rgb(33,27,38);stroke-width:6.25px;stroke-miterlimit:1;"/>
        <path d="M155.74,176.531L375.005,435.143" style="fill:none;stroke:rgb(33,27,38);stroke-width:6.25px;stroke-miterlimit:1;"/>
        <path d="M241.429,400.864L243.671,420.046C243.787,421.035 244.363,421.91 245.225,422.408C246.086,422.905 247.133,422.966 248.046,422.572L265.779,414.923L250.289,426.456C249.49,427.05 249.02,427.987 249.02,428.982C249.02,429.977 249.49,430.913 250.289,431.508L265.779,443.04L248.046,435.391C247.133,434.997 246.086,435.058 245.225,435.556C244.363,436.053 243.787,436.929 243.671,437.917L241.429,457.099L239.187,437.917C239.071,436.929 238.495,436.053 237.634,435.556C236.772,435.058 235.726,434.997 234.812,435.391L217.079,443.04L232.57,431.508C233.368,430.913 233.838,429.977 233.838,428.982C233.838,427.987 233.368,427.05 232.57,426.456L217.079,414.923L234.812,422.572C235.726,422.966 236.772,422.905 237.634,422.408C238.495,421.91 239.071,421.035 239.187,420.046L241.429,400.864Z" style="fill:rgb(240,137,46);stroke:rgb(221,89,37);stroke-width:1.87px;stroke-miterlimit:1;"/>
        <path d="M332.777,77.46L334.734,96.625C334.846,97.721 335.478,98.696 336.432,99.247C337.386,99.798 338.546,99.857 339.551,99.406L357.127,91.518L341.509,102.796C340.616,103.441 340.087,104.476 340.087,105.577C340.087,106.679 340.616,107.713 341.509,108.358L357.127,119.636L339.551,111.749C338.546,111.298 337.386,111.357 336.432,111.908C335.478,112.458 334.846,113.434 334.734,114.53L332.777,133.694L330.819,114.53C330.707,113.434 330.076,112.458 329.122,111.908C328.168,111.357 327.008,111.298 326.003,111.749L308.427,119.636L324.045,108.358C324.938,107.713 325.467,106.679 325.467,105.577C325.467,104.476 324.938,103.441 324.045,102.796L308.427,91.518L326.003,99.406C327.008,99.857 328.168,99.798 329.122,99.247C330.076,98.696 330.707,97.721 330.819,96.625L332.777,77.46Z" style="fill:rgb(240,137,46);stroke:rgb(221,89,37);stroke-width:1.87px;stroke-miterlimit:1;"/>
        <path d="M152.677,156.189L154.171,168.971C154.248,169.63 154.632,170.213 155.206,170.545C155.78,170.877 156.477,170.917 157.086,170.655L168.904,165.557L158.58,173.243C158.049,173.639 157.735,174.263 157.735,174.926C157.735,175.589 158.049,176.213 158.58,176.609L168.904,184.295L157.086,179.197C156.477,178.935 155.78,178.975 155.206,179.307C154.632,179.638 154.248,180.222 154.171,180.88L152.677,193.663L151.182,180.88C151.105,180.222 150.722,179.638 150.147,179.307C149.573,178.975 148.876,178.935 148.267,179.197L136.45,184.295L146.773,176.609C147.305,176.213 147.618,175.589 147.618,174.926C147.618,174.263 147.305,173.639 146.773,173.243L136.45,165.557L148.267,170.655C148.876,170.917 149.573,170.877 150.147,170.545C150.722,170.213 151.105,169.63 151.182,168.971L152.677,156.189Z" style="fill:rgb(240,137,46);stroke:rgb(221,89,37);stroke-width:1.87px;stroke-miterlimit:1;"/>
        <path d="M435.241,345.304L436.735,358.086C436.812,358.745 437.196,359.329 437.77,359.66C438.344,359.992 439.041,360.032 439.65,359.77L451.468,354.672L441.144,362.358C440.613,362.754 440.299,363.378 440.299,364.041C440.299,364.704 440.613,365.328 441.144,365.724L451.468,373.41L439.65,368.312C439.041,368.05 438.344,368.09 437.77,368.422C437.196,368.753 436.812,369.337 436.735,369.996L435.241,382.778L433.746,369.996C433.669,369.337 433.286,368.753 432.711,368.422C432.137,368.09 431.44,368.05 430.831,368.312L419.014,373.41L429.337,365.724C429.869,365.328 430.182,364.704 430.182,364.041C430.182,363.378 429.869,362.754 429.337,362.358L419.014,354.672L430.831,359.77C431.44,360.032 432.137,359.992 432.711,359.66C433.286,359.329 433.669,358.745 433.746,358.086L435.241,345.304Z" style="fill:rgb(240,137,46);stroke:rgb(221,89,37);stroke-width:1.87px;stroke-miterlimit:1;"/>
        <g>
            <path d="M221.387,204.953C221.861,203.595 222.32,202.173 222.687,200.837C223.04,199.552 223.316,198.246 223.588,196.941C223.896,195.462 224.047,193.579 224.537,191.962C225.124,190.025 226.251,187.532 227.107,185.325C227.96,183.123 228.847,180.646 229.67,178.72C230.389,177.035 231.195,175.387 232.043,173.764C232.974,171.979 234.303,169.714 235.26,168.009C236.098,166.516 236.879,164.983 237.782,163.535C238.684,162.089 239.766,160.681 240.678,159.321C241.552,158.017 242.442,156.567 243.25,155.377C243.985,154.295 244.767,153.246 245.527,152.182C246.309,151.086 247.094,149.895 247.946,148.803C248.862,147.629 250.009,146.356 251.022,145.137C252.029,143.926 253.002,142.687 254.025,141.49C255.102,140.228 256.474,138.755 257.485,137.566C258.378,136.516 259.232,135.434 260.092,134.357C260.966,133.263 261.885,132.147 262.728,131.005C263.569,129.864 264.377,128.582 265.147,127.505C265.862,126.504 266.647,125.554 267.347,124.543C268.107,123.446 269.084,121.999 269.708,120.921C270.237,120.006 270.626,119.018 271.092,118.07C271.619,117.001 272.423,115.524 272.867,114.507C273.226,113.685 273.444,112.808 273.757,111.968C274.133,110.96 274.745,109.654 275.121,108.456C275.51,107.216 275.821,105.847 276.092,104.525C276.399,103.03 276.773,101.179 276.963,99.484C277.153,97.789 277.202,95.776 277.234,94.354C277.259,93.221 277.232,92.085 277.154,90.954C277.068,89.716 276.907,88.084 276.722,86.927C276.565,85.941 276.302,84.951 276.045,84.009C275.793,83.087 275.543,82.159 275.177,81.276C274.806,80.38 274.312,79.485 273.817,78.635C273.324,77.788 272.784,76.967 272.209,76.173C271.628,75.373 270.961,74.529 270.334,73.832C269.746,73.179 269.123,72.553 268.445,71.995C267.711,71.392 266.714,70.732 265.934,70.213C265.228,69.744 264.516,69.28 263.768,68.882C262.959,68.451 262.001,67.987 261.081,67.627C260.08,67.235 258.848,66.891 257.762,66.531C256.697,66.178 255.623,65.817 254.567,65.467C253.521,65.12 252.496,64.705 251.429,64.429C250.228,64.119 248.72,63.865 247.361,63.606C245.826,63.314 243.492,62.868 242.22,62.678C241.395,62.555 240.558,62.545 239.727,62.469C238.72,62.377 237.364,62.165 236.175,62.126C234.683,62.077 232.572,62.094 230.773,62.174C228.86,62.26 226.721,62.477 224.695,62.639C222.54,62.812 220.022,63.019 217.841,63.21C215.763,63.393 213.679,63.522 211.61,63.787C209.505,64.056 207.084,64.486 205.211,64.825C203.589,65.117 201.973,65.444 200.367,65.816C198.489,66.251 196.076,66.869 193.94,67.434C191.525,68.072 188.226,68.939 185.877,69.647C183.847,70.258 181.842,70.956 179.847,71.677C177.82,72.41 175.742,73.215 173.714,74.046C171.158,75.092 167.245,76.741 164.516,77.954C162.1,79.027 159.622,80.255 157.336,81.322C155.159,82.337 152.955,83.295 150.799,84.354C148.523,85.472 145.89,86.827 143.677,88.029C141.597,89.16 139.516,90.358 137.521,91.57C135.552,92.767 133.483,94.179 131.706,95.305C130.097,96.324 128.443,97.271 126.857,98.326C124.998,99.562 122.596,101.258 120.554,102.719C118.551,104.152 116.441,105.665 114.603,107.097C112.868,108.448 111.223,109.91 109.526,111.31C107.412,113.053 103.973,115.846 101.917,117.56C100.328,118.885 98.747,120.222 97.195,121.591C95.566,123.027 93.77,124.585 92.147,126.176C90.418,127.871 88.486,130.054 86.821,131.762C85.288,133.335 83.642,134.8 82.16,136.422C80.642,138.084 79.129,139.908 77.714,141.733C76.189,143.701 74.454,146.204 73.007,148.229C71.668,150.102 70.164,152.197 69.033,153.88C68.054,155.336 67.035,156.898 66.219,158.327C65.454,159.666 64.813,161.071 64.134,162.455C63.238,164.278 61.804,167.012 60.846,169.266C59.914,171.46 59.047,173.804 58.386,175.98C57.753,178.059 57.206,180.318 56.876,182.322C56.567,184.198 56.499,186.261 56.405,188.007C56.319,189.603 56.219,191.206 56.311,192.802C56.41,194.527 56.707,196.609 56.998,198.357C57.275,200.016 57.574,201.758 58.058,203.29C58.525,204.767 59.146,206.203 59.906,207.552C60.731,209.017 61.932,210.772 63.011,212.078C64.015,213.291 65.217,214.384 66.384,215.384C67.528,216.364 68.718,217.306 70.012,218.076C71.433,218.921 73.394,219.803 74.911,220.457C76.282,221.048 77.684,221.578 79.116,222C80.575,222.429 82.136,222.763 83.667,223.035C85.304,223.327 87.215,223.62 88.933,223.748C90.61,223.873 92.296,223.875 93.976,223.806C95.699,223.734 97.767,223.569 99.274,223.32C100.549,223.11 102.112,222.642 103.017,222.312C103.626,222.09 104.345,221.581 104.701,221.339C104.882,221.216 105.367,220.89 105.15,220.86C104.862,220.82 103.702,221.049 102.973,221.1C102.193,221.154 101.302,221.223 100.466,221.184C99.509,221.14 98.294,221.039 97.228,220.833C95.985,220.593 94.117,220.091 93.013,219.742C92.183,219.479 91.384,219.121 90.604,218.734C89.746,218.308 88.764,217.875 87.863,217.186C85.83,215.63 80.63,211.65 80.066,207.56C79.342,202.301 79.473,191.831 83.516,185.635C89.792,176.019 108.683,158.471 117.724,149.86C123.896,143.981 130.442,138.341 137.759,133.97C146.918,128.5 162.121,121.406 172.675,117.037C181.881,113.226 192.87,108.806 201.086,107.753C208.06,106.858 217.688,108.671 221.971,110.714C225.12,112.216 225.973,116.615 226.784,120.009C227.72,123.92 228.187,129.49 227.585,134.185C226.826,140.103 224.151,148.443 222.229,155.518C220.101,163.355 216.234,174.606 214.817,181.205C213.841,185.751 213.257,190.485 213.726,195.11C214.277,200.561 216.851,212.265 218.128,213.906C219.404,215.546 220.627,207.131 221.387,204.953Z" style="fill:rgb(142,33,36);"/>
            <circle cx="248.039" cy="287.06" r="23.896" style="fill:rgb(24,20,28);"/>
            <path d="M204.805,253.473C204.935,253.413 205.083,253.57 205.188,253.668C205.301,253.773 205.419,254.006 205.478,254.102C205.506,254.146 205.552,254.19 205.546,254.242C205.49,254.767 205.28,256.249 205.137,257.251C204.992,258.268 204.869,259.464 204.677,260.345C204.513,261.095 204.256,261.823 203.984,262.54C203.699,263.291 203.333,264.227 202.965,264.855C202.648,265.394 202.199,265.847 201.773,266.305C201.215,266.904 200.358,267.756 199.62,268.45C198.683,269.332 197.088,270.699 196.149,271.597C195.401,272.313 194.558,273.191 193.991,273.834C193.541,274.344 193.054,274.963 192.748,275.452C192.493,275.859 192.352,276.328 192.155,276.766C191.901,277.329 191.488,278.133 191.224,278.834C190.962,279.531 190.728,280.242 190.573,280.97C190.389,281.832 190.118,283.058 190.121,284.008C190.123,284.908 190.36,285.825 190.586,286.668C190.807,287.49 191.06,288.321 191.48,289.062C192.112,290.178 193.524,292.316 194.381,293.365C195.013,294.138 195.813,294.769 196.623,295.354C197.547,296.022 198.839,296.835 199.926,297.372C200.954,297.88 202.062,298.208 203.148,298.578C204.313,298.975 205.635,299.456 206.917,299.752C208.333,300.079 210.062,300.324 211.646,300.54C213.407,300.78 215.529,301.144 217.488,301.194C219.983,301.257 223.805,301.145 226.617,300.917C229.216,300.705 231.925,300.205 234.362,299.822C236.661,299.461 238.974,299.15 241.24,298.621C243.728,298.039 247.058,297.069 249.291,296.332C251.114,295.731 252.862,294.924 254.639,294.2C256.993,293.242 260.938,291.682 263.411,290.582C265.47,289.666 267.531,288.732 269.479,287.599C271.892,286.194 275.905,283.524 277.892,282.154C279.119,281.308 280.281,280.34 281.398,279.378C282.505,278.424 283.668,277.305 284.593,276.38C285.412,275.561 286.269,274.763 286.951,273.826C287.66,272.85 288.284,271.621 288.851,270.527C289.402,269.463 290.033,268.372 290.352,267.261C290.667,266.162 290.744,264.884 290.764,263.857C290.782,262.934 290.608,261.834 290.472,261.101C290.367,260.538 290.138,259.949 289.948,259.464C289.776,259.024 289.526,258.568 289.332,258.188C289.158,257.847 288.929,257.42 288.782,257.181C288.687,257.027 288.437,256.787 288.449,256.753C288.46,256.721 288.923,256.729 289.154,256.772C289.568,256.849 290.398,256.997 290.934,257.217C291.452,257.429 291.94,257.729 292.369,258.088C292.904,258.537 293.64,259.226 294.144,259.907C294.652,260.593 295.104,261.504 295.415,262.205C295.685,262.813 295.92,263.451 296.013,264.11C296.134,264.977 296.187,266.31 296.145,267.403C296.104,268.497 295.957,269.72 295.765,270.67C295.597,271.504 295.263,272.392 294.994,273.103C294.757,273.733 294.385,274.434 294.153,274.939C293.969,275.338 293.54,275.991 293.6,276.135C293.659,276.28 294.251,275.997 294.513,275.806C295.124,275.361 296.421,274.319 297.269,273.461C298.387,272.328 300.161,270.384 301.224,269.012C302.14,267.829 303.051,266.424 303.642,265.23C304.169,264.165 304.492,263.003 304.768,261.847C305.054,260.645 305.314,259.131 305.36,258.017C305.4,257.063 305.26,256.099 305.046,255.168C304.818,254.176 304.522,252.945 303.994,252.066C303.473,251.2 302.667,250.527 301.876,249.897C301.033,249.226 299.987,248.532 298.938,248.042C297.817,247.518 296.44,247.092 295.15,246.756C293.72,246.383 291.966,246.056 290.356,245.806C288.69,245.548 286.893,245.313 285.15,245.207C283.259,245.092 280.74,245.171 279.014,245.118C277.606,245.076 276.051,245.528 274.794,244.892C272.923,243.947 268.402,240.659 267.791,239.448C267.22,238.319 269.889,237.911 271.123,237.628C274.456,236.864 282.163,235.142 287.787,234.86C293.619,234.568 300.506,234.949 306.111,235.873C311.361,236.739 318.493,237.021 321.417,240.407C324.342,243.794 324.781,250.999 323.657,256.193C322.397,262.019 318.33,269.75 313.857,275.361C308.833,281.664 300.554,288.57 293.514,294.008C286.662,299.302 279.574,304.569 271.62,307.992C262.263,312.017 246.224,316.685 237.375,318.162C231.165,319.199 223.6,317.584 218.531,316.854C214.581,316.286 210.839,314.719 206.959,313.784C201.975,312.583 193.998,312.873 188.626,309.65C183.232,306.413 177.176,298.379 174.597,294.362C172.989,291.858 172.484,288.452 173.154,285.552C174.046,281.686 176.745,275.389 179.954,271.166C183.305,266.755 189.122,262.036 193.263,259.087C196.749,256.606 202.817,254.376 204.805,253.473Z" style="fill:rgb(255,166,88);"/>
            <path d="M201.561,239.22C201.568,238.585 201.657,237.904 201.409,237.319C201.334,237.144 200.516,235.711 200.124,234.88C199.527,233.616 198.433,231.199 197.829,229.738C197.338,228.55 196.79,226.788 196.499,226.117C196.422,225.939 196.269,225.655 196.084,225.71C192.28,226.842 180.8,229.621 173.675,232.905C164.72,237.032 152.024,243.421 142.353,250.476C130.87,258.853 113.306,273.968 104.779,283.164C98.824,289.587 92.187,297.331 91.19,305.656C90.192,313.982 94.389,325.996 98.795,333.118C103.046,339.99 110.129,345.364 117.623,348.387C125.793,351.683 137.64,352.879 147.815,352.891C161.571,352.906 186.89,349.072 200.159,348.481C209.244,348.075 221.728,348.105 227.429,349.34C230.538,350.013 235.078,353.509 234.365,355.892C233.653,358.274 227.253,361.679 223.154,363.636C218.296,365.954 210.033,367.756 205.218,369.802C201.371,371.438 195.41,374.453 194.267,375.914C193.265,377.193 196.733,378.487 198.355,378.567C202.17,378.755 210.999,378.32 217.155,377.043C229.345,374.515 253.673,368.979 271.495,363.399C289.629,357.722 308.412,351.227 325.959,342.979C344.809,334.119 370.379,321.824 384.598,310.235C396.339,300.665 404.315,284.435 411.27,273.443C417.119,264.198 423.773,253.588 426.327,244.283C428.68,235.709 429.27,224.312 426.596,217.612C423.978,211.051 416.572,207.303 410.285,204.081C402.708,200.198 389.645,196.607 381.135,194.312C373.966,192.378 366.634,190.747 359.221,190.311C350.433,189.794 338.657,190.488 328.407,191.21C318.095,191.935 307.646,193.088 297.35,194.665C283.568,196.776 256.215,201.505 245.717,203.873C241.683,204.783 236.588,207.796 234.363,208.875C233.619,209.236 232.843,209.672 232.366,210.348C231.839,211.093 231.476,212.612 231.2,213.349C231.025,213.818 230.703,214.27 230.714,214.771C230.748,216.344 231.143,220.644 231.406,222.787C231.607,224.416 232.017,226.52 232.295,227.629C232.455,228.266 233.015,229.414 233.076,229.438C238.61,231.64 256.649,229.328 268.378,230.318C280.486,231.34 296.324,232.708 305.721,235.57C312.883,237.751 321.154,243.8 324.756,247.49C327.21,250.004 328.366,254.352 327.334,257.71C325.941,262.241 320.707,269.506 316.401,274.675C311.66,280.367 305.836,287.542 298.89,291.857C289.463,297.714 270.79,305.084 259.842,309.812C251.088,313.592 239.873,318.695 233.2,320.226C228.828,321.229 223.958,319.846 219.802,318.996C215.828,318.183 212.157,316.269 208.266,315.124C200.234,312.761 180.06,309.47 171.612,304.819C165.039,301.199 155.32,294.368 157.582,287.214C159.873,279.972 178.069,267.986 185.353,261.366C190.565,256.63 198.587,251.184 201.288,247.493C202.918,245.267 201.541,240.916 201.561,239.22Z" style="fill:rgb(221,89,37);"/>
            <path d="M386.488,260.345C387.17,258.633 388.629,255.16 389.33,252.855C389.959,250.787 390.482,248.665 390.695,246.514C390.914,244.312 391.007,241.779 390.64,239.643C390.284,237.566 389.41,235.594 388.497,233.695C387.515,231.656 385.988,229.129 384.754,227.406C383.694,225.927 382.466,224.55 381.092,223.358C379.313,221.814 376.183,219.562 374.083,218.147C372.292,216.94 370.445,215.793 368.493,214.869C366.222,213.793 363.173,212.644 360.453,211.693C357.695,210.729 354.532,209.75 351.944,209.082C349.636,208.487 347.29,208.02 344.929,207.687C342.281,207.314 337.947,207.022 336.054,206.843C335.226,206.765 333.896,206.732 333.571,206.616C333.349,206.537 333.871,206.195 334.102,206.149C335.103,205.949 337.707,205.556 339.574,205.416C341.487,205.272 343.577,205.257 345.579,205.28C347.608,205.304 349.694,205.387 351.744,205.557C354.227,205.763 357.967,206.133 360.476,206.515C362.606,206.84 364.722,207.282 366.8,207.852C369.094,208.48 371.838,209.264 374.237,210.289C377.008,211.472 381.064,213.597 383.429,214.952C385.188,215.961 387.029,217.261 388.424,218.422C389.669,219.457 390.803,220.776 391.799,221.916C392.729,222.98 393.676,224.05 394.402,225.262C395.128,226.475 395.675,227.842 396.159,229.194C396.652,230.573 397.072,232.187 397.364,233.534C397.631,234.767 397.903,236.017 397.91,237.277C397.919,238.709 397.641,240.635 397.416,242.125C397.208,243.503 396.914,244.936 396.559,246.217C396.22,247.441 395.758,248.632 395.289,249.81C394.821,250.986 394.274,252.188 393.748,253.282C393.243,254.33 392.593,255.589 392.13,256.374C391.793,256.946 391.396,257.483 390.969,257.991C390.471,258.585 389.712,259.36 389.14,259.937C388.623,260.458 388.012,260.996 387.54,261.448C387.125,261.845 386.692,262.371 386.308,262.651C385.991,262.882 385.203,263.511 385.233,263.127C385.263,262.742 386.111,261.29 386.488,260.345Z" style="fill:rgb(240,137,46);"/>
            <path d="M170.121,226.055C172.983,224.596 176.049,223.274 178.862,221.995C181.564,220.767 184.886,219.297 187,218.382C188.506,217.731 190.637,216.862 191.551,216.505C191.852,216.388 192.201,216.246 192.483,216.241C192.748,216.237 193.034,216.314 193.242,216.478C193.463,216.654 193.678,216.991 193.812,217.295C193.993,217.706 194.162,218.394 194.33,218.946C194.657,220.017 195.411,222.529 195.773,223.723C195.91,224.176 196.301,225.611 196.498,226.115C196.499,226.116 196.497,226.122 196.488,226.125C192.705,227.727 179.156,233.867 174.439,236.07C172.308,237.066 170.239,238.195 168.187,239.344C165.234,240.997 160.476,243.661 156.722,245.99C152.768,248.443 148.15,251.442 144.46,254.064C141.064,256.477 137.615,259.254 134.584,261.722C131.749,264.031 128.967,266.407 126.272,268.877C123.08,271.802 118.18,276.47 115.428,279.278C113.426,281.32 111.329,283.79 109.762,285.721C108.427,287.366 107.084,289.316 106.025,290.863C105.103,292.209 104.194,293.571 103.408,295.001C102.543,296.575 101.562,298.479 100.835,300.304C100.09,302.173 99.37,304.193 98.94,306.218C98.5,308.284 98.223,310.929 98.196,312.704C98.175,314.105 98.396,315.518 98.778,316.866C99.221,318.429 99.983,320.428 100.853,322.085C101.73,323.757 102.841,325.39 104.041,326.892C105.265,328.425 106.957,330.099 108.2,331.284C109.231,332.267 110.335,333.18 111.498,334.001C112.94,335.017 115.011,336.345 116.847,337.385C118.691,338.429 120.817,339.518 122.562,340.264C124.099,340.921 125.722,341.355 127.316,341.859C129.008,342.394 130.893,343.007 132.712,343.473C134.795,344.006 137.434,344.599 139.816,345.061C142.488,345.579 145.741,346.257 148.741,346.581C152.65,347.003 158.419,347.471 163.273,347.594C168.369,347.724 174.144,347.634 179.32,347.356C184.337,347.086 189.338,346.536 194.325,345.924C199.558,345.282 205.801,344.351 210.713,343.506C215.099,342.751 219.978,341.688 223.798,340.85C227.092,340.127 230.374,339.342 233.634,338.475C237.429,337.466 242.303,336.134 246.571,334.795C250.833,333.458 255.253,331.847 259.244,330.441C263.013,329.114 266.791,327.804 270.517,326.36C274.775,324.71 280.713,322.292 284.789,320.539C288.221,319.063 291.572,317.402 294.969,315.845C298.373,314.284 302.336,312.534 305.215,311.175C307.58,310.059 309.921,308.891 312.245,307.692C314.913,306.316 319.634,303.704 321.22,302.921C321.385,302.839 321.774,302.832 321.766,302.989C321.758,303.146 321.449,303.645 321.173,303.863C320.066,304.737 317.181,306.831 315.128,308.233C312.455,310.059 308.548,312.755 305.133,314.818C301.513,317.004 297.125,319.351 293.412,321.352C289.923,323.233 285.978,325.224 282.855,326.826C280.137,328.221 276.608,329.952 274.677,330.965C273.52,331.572 272.13,332.402 271.27,332.903C270.679,333.248 269.897,333.682 269.517,333.971C269.291,334.143 269.015,334.443 268.987,334.637C268.959,334.832 269.144,335.148 269.35,335.137C269.923,335.105 271.418,334.742 272.426,334.445C273.962,333.993 276.558,333.206 278.565,332.422C281.244,331.375 285.189,329.586 288.5,328.166C291.935,326.693 295.663,325.216 299.176,323.585C302.844,321.882 306.816,319.868 310.514,317.945C314.165,316.045 317.942,313.996 321.361,312.043C324.626,310.178 327.847,308.234 331.026,306.227C334.58,303.983 339.048,301.097 342.681,298.582C346.13,296.194 349.621,293.535 352.824,291.133C355.873,288.846 359.452,286.204 361.896,284.172C363.858,282.539 365.926,280.526 367.484,278.936C368.819,277.574 370.262,275.894 371.247,274.629C372.05,273.598 372.803,272.246 373.391,271.348C373.853,270.643 374.45,269.709 374.779,269.237C374.956,268.984 375.142,268.624 375.367,268.519C375.593,268.413 376.126,268.348 376.132,268.604C376.147,269.286 375.873,271.322 375.461,272.613C374.968,274.161 374.14,276.161 373.172,277.893C372.16,279.706 370.393,282.777 368.524,284.941C365.453,288.495 358.782,295.088 354.343,299.203C350.372,302.883 346.193,306.345 341.891,309.63C337.492,312.989 332.329,316.454 327.949,319.356C323.91,322.034 319.837,324.672 315.613,327.048C310.84,329.733 304.775,332.741 299.309,335.465C293.85,338.187 288.244,340.919 282.817,343.396C277.512,345.817 272.09,348.159 266.751,350.324C261.476,352.463 255.356,354.603 250.785,356.387C246.945,357.885 243.169,359.542 239.324,361.028C235.311,362.578 230.914,364.137 226.708,365.689C222.388,367.283 216.8,369.277 213.404,370.591C211.019,371.514 208.231,372.789 206.334,373.573C204.904,374.163 202.654,374.903 202.021,375.29C201.795,375.429 202.271,375.906 202.536,375.897C203.949,375.85 207.868,375.483 210.494,375.005C215.327,374.127 224.577,372.344 231.531,370.627C238.657,368.869 246.072,366.712 253.252,364.452C260.634,362.128 268.401,359.547 275.825,356.684C284.559,353.315 296.861,348.233 305.655,344.24C313.445,340.704 321.228,336.722 328.594,332.728C335.812,328.814 342.967,324.755 349.849,320.275C357.181,315.503 365.867,309.302 372.587,304.09C378.689,299.359 385.27,293.58 390.168,289.009C394.332,285.123 398.882,280.165 401.978,276.662C404.407,273.913 406.84,271.12 408.747,267.987C411.142,264.056 414.687,257.237 416.343,253.074C417.616,249.875 418.228,246.425 418.684,243.012C419.144,239.576 419.402,235.672 419.101,232.461C418.821,229.475 418.133,226.467 416.877,223.744C415.567,220.906 413.541,217.861 411.239,215.43C408.834,212.889 405.61,210.48 402.446,208.502C399.234,206.494 395.573,204.839 391.968,203.384C388.291,201.9 384.304,200.661 380.382,199.598C376.186,198.46 371.383,197.248 366.792,196.557C361.227,195.719 352.388,194.878 346.99,194.572C342.801,194.335 338.596,194.528 334.405,194.726C329.369,194.963 322.645,195.503 316.774,195.996C310.37,196.534 302.876,196.972 295.985,197.953C289.082,198.935 281.773,200.515 275.354,201.891C269.356,203.177 262.798,204.815 257.467,206.21C252.737,207.448 247.462,208.968 243.368,210.26C239.84,211.373 235.013,213.185 232.905,213.962C232.158,214.238 230.719,214.923 230.719,214.923C230.719,214.923 230.668,214.469 230.732,212.797C230.787,211.372 230.865,208.822 230.909,207.922C230.985,206.355 231.146,204.188 231.346,203.212C231.438,202.763 231.746,202.349 232.106,202.064C232.582,201.687 233.454,201.204 234.203,200.95C236.326,200.231 241.281,198.77 244.84,197.75C249.08,196.535 254.664,194.853 259.642,193.661C265.999,192.139 276.628,189.842 282.983,188.615C287.88,187.669 292.883,186.922 297.767,186.3C302.592,185.685 307.444,185.301 312.29,184.883C317.673,184.42 324.149,183.795 330.065,183.518C335.966,183.242 341.98,183.142 347.786,183.222C353.495,183.301 360.16,183.662 364.897,183.998C368.681,184.267 372.47,184.607 376.209,185.242C380.783,186.018 387.078,187.222 392.341,188.657C397.583,190.086 402.94,191.77 407.791,193.85C412.533,195.884 417.482,198.594 421.448,201.138C425.068,203.461 428.81,206.178 431.588,209.117C434.258,211.94 436.522,215.518 438.122,218.77C439.641,221.859 440.643,225.232 441.186,228.631C441.734,232.064 441.782,235.811 441.411,239.373C441.022,243.103 439.863,247.451 438.852,251.012C437.91,254.328 436.902,257.665 435.343,260.74C433.213,264.94 429.52,271.284 426.075,276.211C422.566,281.231 418.519,286.234 414.288,290.856C409.839,295.716 404.466,300.923 399.383,305.373C394.421,309.717 389.164,313.73 383.791,317.556C377.747,321.859 370.142,326.856 363.119,331.193C356.06,335.553 348.72,339.862 341.438,343.712C334.242,347.517 326.443,351.101 319.43,354.295C312.809,357.312 306.139,360.235 299.361,362.88C291.688,365.874 281.06,369.646 273.394,372.258C266.77,374.515 260.113,376.694 253.367,378.554C246.168,380.54 237.719,382.676 230.2,384.171C222.941,385.614 215.602,386.66 208.252,387.525C199.794,388.521 187.572,389.614 179.456,390.147C172.835,390.582 165.756,390.794 159.558,390.725C153.787,390.661 148.01,390.344 142.27,389.733C135.127,388.972 124.233,387.736 116.701,386.162C110.018,384.765 102.956,382.427 97.08,380.285C91.716,378.33 85.553,375.357 81.439,373.31C78.31,371.754 75.215,370.07 72.397,368.004C69.489,365.872 66.09,362.727 63.993,360.52C62.359,358.801 60.768,356.294 59.814,354.762C59.149,353.696 58.64,352.354 58.263,351.327C57.94,350.446 57.689,349.315 57.553,348.602C57.456,348.092 57.435,347.478 57.45,347.049C57.462,346.702 57.505,346.191 57.645,346.027C57.784,345.863 58.144,345.903 58.288,346.062C58.876,346.718 60.124,348.732 61.174,349.962C62.364,351.354 63.873,353.073 65.423,354.416C67.238,355.989 69.743,357.892 72.065,359.398C74.629,361.062 77.792,362.918 80.804,364.396C84.218,366.071 88.747,368.082 92.549,369.447C96.157,370.743 100.031,371.71 103.614,372.586C107.06,373.429 110.55,374.097 114.046,374.705C117.772,375.353 121.971,376.079 125.969,376.476C130.581,376.933 137.513,377.359 141.716,377.449C144.877,377.517 148.038,377.26 151.19,377.014C155.011,376.717 160.375,376.224 164.643,375.662C168.715,375.126 172.772,374.459 176.797,373.643C180.996,372.792 185.905,371.61 189.836,370.556C193.386,369.604 197.366,368.352 200.378,367.321C202.927,366.447 205.58,365.271 207.903,364.367C210.037,363.537 212.196,362.767 214.314,361.898C216.625,360.95 219.858,359.541 221.767,358.678C223.121,358.065 225.041,357.191 225.769,356.716C226.037,356.541 226.183,356.099 226.136,355.828C226.089,355.557 225.813,355.057 225.488,355.092C223.876,355.265 219.475,356.307 216.46,356.869C212.515,357.606 206.721,358.769 201.816,359.509C196.077,360.375 188.211,361.46 182.025,362.065C176.267,362.628 170.407,363.064 164.701,363.14C159.06,363.216 153.401,362.867 147.788,362.526C142.191,362.186 135.955,361.744 131.027,361.096C126.717,360.529 122.397,359.747 118.221,358.638C114.048,357.53 109.322,355.816 105.966,354.442C103.234,353.324 100.496,351.842 98.087,350.398C95.789,349.021 93.541,347.526 91.511,345.779C89.169,343.763 86.011,340.765 84.039,338.303C82.269,336.092 80.635,333.06 79.682,331.006C78.952,329.431 78.648,327.593 78.323,325.977C78.015,324.439 77.818,322.874 77.735,321.308C77.653,319.73 77.708,318.107 77.826,316.513C77.954,314.785 77.962,312.731 78.505,310.94C79.352,308.14 81.623,302.571 82.911,299.717C83.84,297.66 85.008,295.712 86.233,293.817C87.85,291.316 90.676,287.286 92.614,284.712C94.264,282.522 95.998,280.389 97.86,278.377C100.157,275.896 103.504,272.541 106.394,269.822C109.243,267.143 112.202,264.58 115.2,262.069C118.39,259.398 122,256.44 125.53,253.794C129.181,251.057 133.35,248.192 137.104,245.649C140.708,243.208 144.477,240.755 148.055,238.537C151.513,236.393 155.03,234.342 158.571,232.339C162.249,230.259 166.739,227.779 170.121,226.055Z" style="fill:rgb(142,33,36);"/>
            <path d="M268.904,179.175C270.307,178.914 273.481,178.268 275.778,177.86C278.861,177.312 283.516,176.487 287.399,175.888C291.622,175.237 296.541,174.567 301.118,173.952C305.873,173.313 310.981,172.587 315.93,172.055C320.9,171.521 326.178,171.059 330.94,170.748C335.453,170.452 340.507,170.322 344.498,170.185C347.961,170.066 351.424,169.891 354.888,169.923C358.536,169.957 362.562,170.06 366.381,170.391C371.479,170.832 380.375,171.923 385.471,172.571C389.312,173.059 393.15,173.585 396.959,174.276C401.013,175.012 405.592,175.782 409.797,176.985C414.233,178.254 419.765,180.35 423.575,181.89C426.686,183.148 429.742,184.568 432.659,186.227C435.807,188.018 439.636,190.49 442.464,192.636C445.026,194.582 447.732,197.047 449.622,199.108C451.251,200.884 452.601,202.929 453.807,205.004C455.012,207.079 456.153,209.762 456.854,211.556C457.385,212.913 457.686,215.078 458.016,215.769C458.134,216.016 458.786,215.973 458.834,215.704C459.158,213.872 459.886,207.626 459.965,204.778C460.016,202.962 459.436,199.709 458.773,197.259C458.036,194.531 457.108,191.13 455.539,188.41C453.887,185.545 451.386,182.477 448.862,180.073C446.345,177.676 443.421,175.696 440.394,173.987C436.497,171.787 430.69,168.661 425.48,166.871C420.171,165.047 414.273,163.843 408.539,163.043C401.666,162.083 391.666,161.474 384.24,161.113C377.494,160.786 370.73,160.653 363.98,160.878C356.602,161.124 347.29,161.905 339.971,162.59C333.319,163.213 326.079,164.125 320.071,164.989C314.663,165.768 308.638,166.873 303.92,167.777C299.849,168.558 295.793,169.429 291.766,170.416C287.628,171.43 283.162,172.689 279.087,173.862C275.146,174.996 269.504,176.732 267.319,177.451C266.836,177.61 266.415,177.919 265.978,178.177C265.526,178.444 264.749,178.82 264.609,179.051C264.482,179.262 264.896,179.532 265.14,179.565C265.599,179.628 266.733,179.49 267.36,179.425C267.879,179.371 268.392,179.27 268.904,179.175Z" style="fill:rgb(142,33,36);"/>
            <path d="M285.93,390.762C290.308,389.112 294.696,387.478 299.003,385.65C303.38,383.793 307.822,381.689 312.189,379.62C317.161,377.264 323.332,374.312 328.833,371.516C334.73,368.518 342.461,364.491 347.574,361.635C351.639,359.364 355.574,356.867 359.511,354.38C363.705,351.729 368.378,348.689 372.737,345.733C377.19,342.714 382.05,339.322 386.228,336.264C390.151,333.391 394.076,330.406 397.802,327.383C401.48,324.399 405.385,320.97 408.582,318.125C411.439,315.583 414.244,312.981 416.986,310.316C419.874,307.51 423.007,304.371 425.905,301.291C429.024,297.977 432.873,293.847 435.699,290.431C438.248,287.349 440.894,283.595 442.857,280.799C444.486,278.479 446.216,275.607 447.477,273.657C448.458,272.137 449.874,269.757 450.418,269.097C450.562,268.922 450.775,269.469 450.742,269.692C450.643,270.349 450.275,271.971 449.827,273.036C448.76,275.573 446.396,281.065 444.343,284.911C441.969,289.36 438.231,295.608 435.584,299.729C433.385,303.151 431.015,306.471 428.458,309.635C425.271,313.579 420.2,319.396 416.46,323.394C413.131,326.952 409.553,330.353 406.016,333.622C402.518,336.855 398.941,340.009 395.24,343.008C391.333,346.174 386.897,349.551 382.575,352.616C377.973,355.879 372.759,359.498 367.629,362.589C362.292,365.805 356.381,369.064 350.555,371.912C344.689,374.78 338.361,377.41 332.428,379.795C326.671,382.109 320.361,384.399 314.957,386.22C310.024,387.883 304.671,389.422 300.002,390.723C295.678,391.928 291.057,393.086 286.945,394.026C283.096,394.907 277.922,395.911 275.331,396.365C274.034,396.593 272.11,396.786 271.4,396.755C271.179,396.745 270.865,396.262 271.069,396.178C273.491,395.179 281.274,392.517 285.93,390.762Z" style="fill:rgb(142,33,36);"/>
            <path d="M174.682,209.148C173.233,209.612 166.952,212.111 163.149,213.744C158.678,215.663 152.872,218.184 147.856,220.664C141.802,223.657 133.663,227.707 126.829,231.701C119.573,235.941 109.185,242.695 104.323,246.105C97.268,251.054 89.648,256.844 83.541,262.181C77.895,267.114 72.185,272.768 67.677,278.127C63.451,283.15 58.903,289.884 56.492,294.335C54.747,297.558 53.829,301.956 53.214,304.832C52.743,307.038 52.699,309.334 52.805,311.588C52.911,313.849 53.443,316.601 53.85,318.397C54.16,319.764 54.863,322.311 55.25,322.362C55.637,322.412 55.836,319.913 56.173,318.7C56.861,316.231 57.838,311.096 59.376,307.547C61.219,303.299 64.542,297.533 67.226,293.212C69.729,289.183 72.452,285.272 75.482,281.623C78.928,277.473 83.492,272.483 87.902,268.315C93.337,263.178 101.623,255.81 108.093,250.801C113.986,246.24 121.223,241.173 126.248,237.754C130.143,235.104 134.205,232.707 138.247,230.288C143.35,227.233 151.237,222.54 156.868,219.427C161.844,216.676 169.061,213.326 172.03,211.613C173.076,211.01 176.029,208.717 174.682,209.148Z" style="fill:rgb(142,33,36);"/>
            <path d="M337.46,287.515C338.444,286.322 340.305,284.292 341.724,282.677C343.228,280.965 344.972,279.12 346.482,277.246C348.04,275.311 349.589,273.163 351.072,271.071C352.636,268.865 354.674,266.061 355.864,264.015C356.823,262.366 357.627,260.212 358.214,258.795C358.659,257.722 359.113,256.643 359.386,255.515C359.713,254.166 360.034,252.03 360.172,250.703C360.282,249.658 360.296,248.599 360.218,247.552C360.123,246.282 359.952,244.471 359.604,243.083C359.268,241.746 358.761,240.444 358.128,239.221C357.469,237.949 356.532,236.627 355.654,235.455C354.793,234.308 353.863,233.208 352.855,232.188C351.834,231.155 350.72,230.129 349.527,229.256C348.248,228.32 346.698,227.347 345.181,226.575C343.495,225.717 341.364,224.861 339.413,224.107C337.212,223.257 334.533,222.086 331.975,221.472C328.9,220.734 324.051,220.073 320.967,219.681C318.48,219.364 315.972,219.226 313.468,219.115C310.93,219.002 308.316,218.936 305.741,219.004C303.15,219.072 300.521,219.269 297.921,219.524C295.117,219.798 291.763,220.231 288.916,220.652C286.212,221.052 283.239,221.531 280.837,222.048C278.701,222.509 276.223,223.229 274.508,223.758C273.164,224.173 271.464,224.879 270.551,225.226C270.04,225.42 269.528,225.614 269.031,225.842C268.49,226.091 267.434,226.518 267.305,226.719C267.176,226.919 267.922,227.019 268.256,227.045C268.74,227.082 269.562,227.036 270.207,226.945C271.27,226.795 273.154,226.383 274.634,226.144C276.331,225.87 278.465,225.548 280.387,225.299C282.495,225.027 284.971,224.666 287.278,224.507C289.718,224.338 292.446,224.251 295.031,224.287C297.631,224.322 300.545,224.574 302.881,224.721C304.936,224.851 306.993,224.969 309.042,225.168C311.202,225.379 313.689,225.619 315.839,225.985C317.893,226.335 319.935,226.789 321.937,227.367C324.099,227.991 326.881,228.964 328.808,229.728C330.417,230.367 332.017,231.06 333.498,231.954C335.084,232.911 337.077,234.345 338.319,235.472C339.351,236.408 340.185,237.554 340.951,238.717C341.802,240.009 342.919,241.777 343.423,243.225C343.885,244.552 343.992,245.999 343.974,247.404C343.951,249.205 343.783,251.87 343.282,254.035C342.753,256.324 341.877,258.872 340.799,261.135C339.675,263.493 338.069,265.902 336.541,268.182C334.89,270.643 333,273.507 330.897,275.904C328.701,278.406 325.975,280.872 323.364,283.193C320.64,285.615 317.079,288.509 314.556,290.433C312.527,291.98 310.377,293.362 308.227,294.735C305.399,296.541 300.763,299.433 297.591,301.266C294.846,302.852 292.024,304.303 289.194,305.732C286.004,307.343 282.117,309.38 278.454,310.929C274.323,312.676 268.914,314.599 264.408,316.214C260.105,317.756 255.772,319.216 251.422,320.617C246.881,322.079 241.944,323.627 237.163,324.987C232.305,326.368 227.051,327.799 222.278,328.905C217.725,329.96 213.142,330.912 208.522,331.625C203.433,332.41 196.4,333.152 191.742,333.615C188.03,333.984 184.308,334.329 180.578,334.4C176.566,334.477 171.961,334.365 167.666,334.076C163.308,333.782 157.976,333.19 154.435,332.639C151.725,332.217 149.057,331.53 146.42,330.772C143.618,329.965 140.237,328.838 137.621,327.799C135.259,326.861 132.75,325.84 130.727,324.539C128.782,323.288 127.014,321.579 125.484,319.993C124.017,318.472 122.556,316.649 121.549,315.023C120.631,313.542 119.86,311.815 119.442,310.238C119.04,308.725 119.039,307.125 119.038,305.56C119.037,303.974 119.207,302.147 119.435,300.724C119.636,299.466 120.019,298.241 120.402,297.025C120.836,295.647 121.366,293.927 122.04,292.456C122.714,290.983 123.576,289.561 124.447,288.187C125.316,286.816 126.248,285.48 127.262,284.212C128.467,282.705 130.349,280.6 131.672,279.149C132.812,277.9 133.981,276.674 135.204,275.506C136.463,274.303 137.869,273.104 139.226,271.932C140.776,270.595 142.991,268.677 144.499,267.482C145.714,266.52 147.067,265.637 148.273,264.767C149.43,263.933 150.572,263.077 151.74,262.26C152.959,261.408 154.418,260.362 155.586,259.653C156.601,259.037 157.929,258.346 158.746,258.008C159.294,257.782 160.847,257.157 160.485,257.627C159.897,258.39 157.009,260.975 155.217,262.584C153.427,264.192 151.479,265.622 149.736,267.281C147.763,269.161 145.397,271.578 143.375,273.863C141.282,276.23 138.952,278.889 137.176,281.484C135.46,283.992 133.859,287.1 132.719,289.436C131.766,291.387 130.935,293.486 130.335,295.499C129.751,297.459 129.272,299.711 129.12,301.512C128.986,303.108 129.02,304.758 129.424,306.308C129.953,308.337 130.984,311.677 132.294,313.685C133.537,315.593 135.48,316.96 137.279,318.357C139.122,319.788 141.161,321.269 143.35,322.271C145.675,323.335 148.617,324.056 151.228,324.74C153.794,325.411 156.386,326.018 159.015,326.372C162.568,326.851 168.633,327.453 172.546,327.613C175.86,327.748 179.267,327.534 182.494,327.331C185.64,327.133 188.887,326.767 191.905,326.392C194.814,326.031 198.255,325.507 200.602,325.084C202.415,324.757 204.309,324.353 205.989,323.851C207.591,323.372 210.162,322.47 210.679,322.073C211.129,321.727 209.654,321.502 209.087,321.468C206.982,321.344 201.725,321.459 198.046,321.329C194.003,321.187 189.219,321.033 184.826,320.614C180.333,320.186 175.363,319.645 171.084,318.76C167.029,317.921 162.317,316.473 159.153,315.302C156.681,314.388 153.992,312.923 152.096,311.737C150.516,310.748 149.006,309.466 147.779,308.184C146.593,306.945 145.473,305.34 144.73,304.041C144.083,302.909 143.557,301.673 143.324,300.39C143.041,298.832 143.015,296.301 143.035,294.697C143.051,293.38 143.156,292.052 143.442,290.766C143.781,289.236 144.362,287.209 145.071,285.521C145.862,283.637 146.997,281.397 148.189,279.465C149.436,277.445 150.983,275.332 152.554,273.398C154.143,271.444 155.917,269.546 157.722,267.737C159.745,265.709 162.302,263.324 164.694,261.231C167.19,259.047 170.25,256.546 172.701,254.631C174.879,252.928 177.098,251.273 179.397,249.739C181.867,248.09 185.126,246.158 187.519,244.74C189.572,243.523 191.654,242.355 193.758,241.229C196.072,239.991 200.107,237.927 201.401,237.311C201.404,237.31 201.406,237.314 201.408,237.316C201.716,237.988 202.746,239.954 203.251,241.34C203.804,242.858 204.414,244.686 204.724,246.422C205.108,248.575 205.462,252.895 205.558,254.256C205.568,254.395 205.415,254.505 205.302,254.585C203.918,255.571 199.854,258.256 197.254,260.168C194.683,262.061 191.749,264.34 189.706,266.062C188.055,267.454 186.477,268.938 184.992,270.505C183.395,272.189 181.327,274.496 180.125,276.17C179.158,277.516 178.37,279.091 177.774,280.551C177.202,281.953 176.846,283.442 176.551,284.927C176.247,286.455 175.898,288.198 175.951,289.719C176.002,291.194 176.196,292.737 176.869,294.051C177.66,295.595 179.179,297.56 180.697,298.983C182.229,300.419 184.457,301.739 186.061,302.667C187.405,303.444 188.857,304.034 190.323,304.547C192.122,305.177 194.628,306.02 196.855,306.447C199.21,306.898 201.912,307.05 204.449,307.255C207.142,307.471 210.336,307.611 213.01,307.747C215.504,307.873 217.999,308.023 220.495,308.069C223.204,308.12 227.015,308.063 229.261,308.05C230.83,308.04 233.23,307.919 233.969,307.991C234.156,308.009 233.843,308.364 233.698,308.483C233.397,308.732 232.797,309.179 232.162,309.484C230.588,310.24 226.835,311.392 224.281,312.275C221.808,313.13 218.323,314.293 216.841,314.782C216.363,314.94 214.891,315.16 215.392,315.207C216.053,315.268 219.012,315.327 220.81,315.15C223.032,314.93 226.108,314.427 228.725,313.889C231.815,313.253 235.831,312.273 239.35,311.334C243.057,310.346 247.122,309.176 250.966,307.956C255.121,306.637 259.907,305.092 264.285,303.419C268.663,301.745 273.12,299.859 277.234,297.916C281.228,296.03 285.248,293.971 288.969,291.763C292.624,289.596 296.614,286.916 299.562,284.672C302.093,282.746 304.51,280.64 306.661,278.298C309.105,275.636 312.359,271.43 314.228,268.7C315.678,266.581 317.042,263.789 317.874,261.915C318.504,260.496 318.93,258.981 319.221,257.456C319.563,255.66 320.04,252.922 319.927,251.139C319.83,249.61 319.215,248.01 318.54,246.758C317.89,245.552 316.897,244.543 315.878,243.627C314.706,242.573 313.107,241.269 311.507,240.433C309.879,239.582 307.966,238.961 306.108,238.521C304.028,238.028 301.393,237.77 299.025,237.476C296.374,237.147 292.513,236.662 290.204,236.547C288.526,236.463 286.841,236.622 285.169,236.783C282.988,236.992 279.612,237.382 277.119,237.803C275.301,238.11 272.253,238.921 270.375,239.395C268.634,239.833 267.405,240.448 267.096,240.323C265.714,239.763 264.653,238.928 263.337,238.449C261.791,237.887 259.445,237.494 257.817,236.947C256.361,236.459 255.07,235.486 253.568,235.17C251.985,234.837 250.066,234.842 248.318,234.949C246.369,235.068 243.617,235.874 241.876,235.883C240.509,235.89 239.02,235.639 237.872,235.003C236.724,234.367 235.79,232.995 234.989,232.066C234.279,231.243 233.066,229.431 233.066,229.431C233.066,229.431 234.617,228.742 235.464,228.408C236.825,227.874 240.092,226.571 242.397,225.686C244.688,224.806 246.982,223.933 249.29,223.1C251.725,222.222 254.653,221.115 257.005,220.415C259.104,219.789 261.276,219.44 263.399,218.899C266.074,218.217 269.8,217.038 273.053,216.323C276.763,215.508 282.189,214.607 285.66,214.007C288.391,213.535 291.383,213.055 293.875,212.724C296.115,212.426 298.362,212.164 300.616,212.019C303.009,211.864 305.752,211.835 308.234,211.797C310.66,211.759 313.088,211.699 315.513,211.788C318.515,211.897 322.834,212.103 326.247,212.453C329.514,212.789 333.249,213.412 335.992,213.89C338.246,214.283 340.502,214.702 342.705,215.322C345.108,215.997 348.214,217.105 350.413,217.945C352.28,218.659 354.138,219.421 355.901,220.362C357.886,221.422 360.625,223.021 362.327,224.307C363.749,225.381 364.999,226.822 366.115,228.078C367.169,229.263 368.282,230.44 369.027,231.84C369.863,233.41 370.636,235.688 371.129,237.495C371.592,239.186 371.969,240.931 371.991,242.684C372.016,244.636 371.718,247.097 371.278,249.203C370.841,251.295 370.188,253.353 369.35,255.319C368.436,257.466 366.874,260.16 365.795,262.08C364.884,263.703 363.98,265.34 362.878,266.84C361.659,268.498 360.001,270.35 358.48,272.032C356.92,273.757 355.201,275.539 353.519,277.189C351.857,278.82 349.918,280.553 348.389,281.933C347.06,283.133 345.715,284.317 344.345,285.469C342.885,286.696 340.714,288.473 339.634,289.295C339.08,289.716 338.382,290.119 337.863,290.4C337.434,290.631 336.948,290.891 336.519,290.978C336.116,291.06 335.402,291.114 335.286,290.923C335.17,290.733 335.605,290.175 335.823,289.834C336.185,289.266 336.858,288.245 337.46,287.515Z" style="fill:rgb(240,137,46);"/>
            <path d="M175.497,263.993C174.353,264.825 172.005,266.505 170.379,267.908C168.708,269.35 166.986,271.066 165.474,272.641C164.02,274.156 162.55,275.76 161.305,277.363C160.098,278.916 158.961,280.577 158.004,282.254C157.06,283.91 156.187,285.654 155.567,287.425C154.949,289.189 154.469,291.196 154.284,292.882C154.114,294.425 154.218,296.003 154.456,297.537C154.743,299.381 156.578,302.211 157.988,303.552C158.912,304.431 159.942,305.194 160.953,305.971C161.816,306.635 163.186,307.436 164.965,308.009C166.457,308.49 168.322,308.73 169.802,308.963C171.141,309.173 172.712,309.269 173.845,309.404C174.764,309.513 176.366,309.861 176.599,309.771C176.832,309.68 175.712,309.139 175.244,308.862C174.598,308.479 173.55,307.962 172.725,307.473C171.568,306.787 169.509,305.639 168.303,304.744C167.271,303.978 166.287,303.114 165.492,302.103C164.62,300.993 163.606,299.479 163.066,298.081C162.533,296.701 162.345,295.129 162.254,293.718C162.166,292.35 162.392,290.865 162.523,289.615C162.643,288.475 162.703,287.311 163.042,286.216C163.471,284.831 164.269,282.878 165.096,281.309C165.935,279.718 167.057,278.145 168.073,276.671C169.063,275.234 170.176,273.829 171.192,272.466C172.18,271.139 173.245,269.672 174.166,268.491C174.991,267.433 175.967,266.248 176.718,265.377C177.345,264.652 178.131,263.819 178.674,263.268C179.088,262.848 179.906,262.287 179.977,262.07C180.048,261.853 179.38,261.877 179.098,261.964C178.643,262.105 177.845,262.575 177.245,262.913C176.649,263.249 176.051,263.59 175.497,263.993Z" style="fill:rgb(221,89,37);"/>
            <path d="M225.821,233.623C225.916,233.48 225.976,233.313 226.01,233.146C226.059,232.902 226.094,232.416 226.114,232.161C226.129,231.978 226.175,231.789 226.13,231.612C226.038,231.248 225.745,230.524 225.563,229.976C225.247,229.021 224.593,227.27 224.232,225.88C223.816,224.276 223.406,222.205 223.065,220.353C222.712,218.428 222.25,215.758 222.11,214.331C222.027,213.486 222.169,212.634 222.225,211.787C222.343,210.016 222.604,205.966 222.819,203.703C222.993,201.864 223.289,200.039 223.51,198.205C223.806,195.766 224.2,191.791 224.59,189.068C224.936,186.655 225.299,184.233 225.851,181.865C226.404,179.497 227.21,177.066 227.906,174.861C228.567,172.769 229.258,170.629 230.031,168.633C230.786,166.683 231.665,164.782 232.542,162.883C233.584,160.626 234.942,157.638 236.284,155.087C237.743,152.315 239.828,148.749 241.295,146.251C242.514,144.175 243.87,142.181 245.084,140.101C246.309,138.002 247.508,135.736 248.644,133.659C249.738,131.656 251.015,129.442 251.897,127.634C252.662,126.065 253.345,124.336 253.933,122.81C254.482,121.387 254.988,119.945 255.425,118.484C255.865,117.013 256.265,115.504 256.572,113.989C256.912,112.307 257.262,110.061 257.468,108.393C257.648,106.927 257.783,105.222 257.807,103.976C257.827,102.955 257.756,101.929 257.611,100.918C257.435,99.699 257.113,97.914 256.757,96.667C256.438,95.552 255.899,94.4 255.47,93.435C255.081,92.563 254.727,91.66 254.179,90.878C253.571,90.009 252.587,89.008 251.817,88.218C251.102,87.486 250.4,86.721 249.559,86.138C248.611,85.48 247.274,84.851 246.13,84.27C245.001,83.698 243.816,83.115 242.693,82.656C241.614,82.215 240.529,81.751 239.388,81.517C237.116,81.051 231.9,80.192 229.061,79.858C226.837,79.596 224.266,79.519 222.352,79.512C220.757,79.506 219.167,79.695 217.577,79.813C215.723,79.951 213.3,80.123 211.231,80.338C209.203,80.549 207.177,80.788 205.163,81.104C202.94,81.453 200.134,81.951 197.893,82.431C195.818,82.876 193.769,83.431 191.72,83.984C189.398,84.609 186.497,85.384 183.963,86.185C181.457,86.976 178.752,87.928 176.518,88.786C174.502,89.56 172.539,90.466 170.562,91.333C168.266,92.339 165.172,93.71 162.743,94.825C160.479,95.864 158.025,97.03 155.989,98.022C154.155,98.915 152.318,99.803 150.525,100.775C148.614,101.813 146.352,103.185 144.522,104.245C142.862,105.207 141.165,106.108 139.546,107.137C137.481,108.45 134.372,110.62 132.132,112.123C130.126,113.47 127.926,114.868 126.109,116.158C124.443,117.341 122.847,118.62 121.228,119.866C119.541,121.166 117.707,122.56 115.983,123.954C114.032,125.533 111.611,127.512 109.52,129.336C107.45,131.141 105.341,133.093 103.438,134.896C101.626,136.614 99.83,138.352 98.103,140.156C96.269,142.072 94.27,144.268 92.434,146.395C90.521,148.61 88.462,151.085 86.628,153.446C84.827,155.766 82.905,158.345 81.43,160.561C80.104,162.555 78.871,164.617 77.78,166.748C76.48,169.284 74.644,173.191 73.635,175.78C72.814,177.884 72.224,180.15 71.72,182.28C71.232,184.347 70.859,186.467 70.615,188.557C70.372,190.635 70.085,192.738 70.255,194.823C70.441,197.097 70.97,199.904 71.728,202.199C72.469,204.446 73.603,206.766 74.8,208.597C75.923,210.315 77.802,212.071 78.907,213.183C79.675,213.957 80.497,214.699 81.425,215.271C82.063,215.664 83.329,216.323 84.425,216.779C85.618,217.275 86.331,217.58 87.202,217.885C88.718,218.415 90.872,218.868 90.872,218.868C90.872,218.868 88.485,217.404 87.242,216.355C86.049,215.348 84.872,213.973 84.002,212.553C83.072,211.035 82.108,208.779 81.663,207.246C81.3,205.997 81.233,204.613 81.33,203.358C81.409,202.333 81.457,201.034 81.614,200.429C81.747,199.918 81.856,199.382 81.934,198.851C82.028,198.215 81.86,197.291 82.176,196.608C84.119,192.411 88.476,180.508 93.594,173.671C99.517,165.757 108.69,156.211 117.712,149.127C127.626,141.342 140.743,133.394 153.08,126.962C165.527,120.472 182.014,113.48 192.395,110.19C199.753,107.858 210.074,106.409 215.361,107.221C219.232,107.815 222.418,111.53 224.115,115.06C225.957,118.893 227.296,125.185 226.416,130.22C225.281,136.716 219.775,145.906 217.303,154.041C214.679,162.675 211.997,174.1 210.674,182.023C209.597,188.469 208.528,195.102 209.362,201.583C210.423,209.83 214.637,225.686 217.043,231.503C218.111,234.087 222.329,236.13 223.792,236.483C224.929,236.758 225.452,234.179 225.821,233.623Z" style="fill:rgb(221,89,37);"/>
            <path d="M214.466,258.018C214.135,257.539 214.142,247.78 213.835,244.605C213.651,242.693 213.117,240.827 212.628,238.969C212.117,237.026 211.422,234.946 210.768,232.951C210.019,230.669 208.96,227.725 208.134,225.272C207.346,222.932 206.459,220.297 205.811,218.238C205.256,216.474 204.589,214.413 204.243,212.918C203.966,211.722 203.891,210.487 203.735,209.268C203.519,207.585 203.081,204.928 202.949,202.822C202.821,200.763 202.906,198.499 202.946,196.632C202.981,194.96 203.067,193.238 203.189,191.621C203.307,190.053 203.464,188.486 203.676,186.928C203.937,185.015 204.319,182.39 204.752,180.141C205.195,177.84 205.746,175.355 206.335,173.122C206.902,170.972 207.606,168.86 208.286,166.743C209.039,164.398 209.932,161.545 210.855,159.056C211.764,156.609 212.871,154.07 213.828,151.811C214.724,149.696 215.77,147.6 216.599,145.503C217.413,143.441 218.315,141.15 218.8,139.227C219.234,137.512 219.386,135.626 219.512,133.966C219.631,132.405 219.669,130.63 219.559,129.27C219.463,128.095 219.271,126.906 218.848,125.806C218.375,124.576 217.458,122.995 216.721,121.889C216.063,120.902 215.153,119.878 214.425,119.171C213.811,118.574 213.075,118.112 212.356,117.647C211.564,117.136 210.629,116.493 209.674,116.102C208.646,115.681 207.376,115.34 206.189,115.122C204.812,114.869 203.014,114.588 201.412,114.583C199.352,114.577 196.287,114.733 193.828,115.086C191.403,115.434 188.946,116.055 186.657,116.699C184.431,117.325 182.246,118.1 180.094,118.949C177.653,119.913 174.685,121.265 172.007,122.481C168.869,123.905 164.778,125.682 161.267,127.493C157.751,129.308 154.328,131.349 150.911,133.369C147.386,135.453 143.621,137.645 140.115,139.999C136.505,142.422 132.792,145.173 129.251,147.91C125.711,150.647 122.275,153.519 118.87,156.423C115.02,159.705 110.229,163.698 106.154,167.603C101.836,171.74 96.288,177.332 92.961,181.247C90.674,183.936 87.281,188.417 85.248,191.998C84.448,193.407 83.291,195.706 82.591,198.159C82.079,199.951 81.742,201.829 81.562,202.969C81.269,204.82 81.307,204.957 81.293,204.959C81.293,204.959 81.166,202.998 81.139,202.164C81.06,199.763 80.818,194.374 81.881,189.969C82.594,187.012 83.346,184.033 84.573,181.249C85.847,178.357 87.76,175.326 89.526,172.616C91.253,169.967 93.271,167.354 95.169,164.99C96.988,162.723 98.895,160.523 100.912,158.431C103.455,155.792 107.484,152.022 110.427,149.156C113.14,146.513 115.816,143.584 118.57,141.232C121.211,138.977 124.12,137.053 126.952,135.043C129.881,132.963 133.016,130.751 136.148,128.755C139.546,126.591 143.588,124.256 147.337,122.056C151.348,119.703 156.217,116.743 160.21,114.636C163.824,112.729 167.961,110.866 171.298,109.413C174.23,108.136 177.253,106.958 180.232,105.916C183.176,104.887 186.389,103.909 189.173,103.165C191.734,102.482 194.311,101.802 196.939,101.455C200.041,101.046 204.834,100.787 207.784,100.71C210.069,100.651 212.431,100.737 214.636,100.995C216.79,101.246 219.112,101.626 221.017,102.257C222.803,102.849 224.598,103.606 226.066,104.784C227.605,106.017 229.306,107.736 230.25,109.658C231.296,111.785 232.157,115.565 232.342,117.548C232.491,119.159 232.511,120.258 232.42,121.608C232.308,123.274 232.083,125.591 231.67,127.541C231.165,129.919 230.329,133.154 229.39,135.878C228.332,138.95 226.718,142.868 225.317,145.971C224.006,148.876 222.288,151.742 220.989,154.497C219.749,157.126 218.522,159.777 217.525,162.499C216.527,165.221 215.722,168.161 215.002,170.829C214.317,173.367 213.684,175.923 213.202,178.507C212.681,181.303 212.14,184.979 211.876,187.606C211.655,189.818 211.584,192.047 211.621,194.27C211.663,196.704 211.798,199.582 212.123,202.216C212.507,205.328 213.181,209.938 213.927,212.94C214.551,215.451 215.634,218.01 216.597,220.228C217.496,222.299 218.766,224.568 219.704,226.248C220.481,227.638 221.468,229.422 222.227,230.305C222.745,230.907 223.724,231.311 224.262,231.543C224.631,231.703 225.149,231.688 225.458,231.7C225.679,231.708 226.004,231.629 226.115,231.612C226.121,231.611 226.126,231.646 226.131,231.664C226.204,231.922 226.383,232.67 226.552,233.16C226.758,233.755 227.035,234.57 227.368,235.234C227.95,236.394 230.173,239.947 230.044,240.122C227.464,243.641 215.232,257.888 214.466,258.018Z" style="fill:rgb(240,137,46);"/>
            <path d="M242.181,234.722C264.062,231.171 284.71,246.052 288.261,267.933C288.336,268.392 288.461,269.307 288.461,269.307C288.461,269.307 272.283,275.682 250.86,279.159C229.308,282.657 209.142,281.786 209.142,281.786C209.142,281.786 209.023,281.132 208.97,280.803C205.418,258.922 220.3,238.274 242.181,234.722Z" style="fill:rgb(24,20,28);"/>
        </g>
        <path d="M256,7.53L471.181,131.765L471.181,380.235L256,504.47L40.819,380.235L40.819,131.765L256,7.53Z" style="fill:none;stroke:rgb(240,137,46);stroke-width:10.42px;"/>
        <path d="M214.651,48.924C216.708,48.659 219.553,48.278 223.045,48.157C226.504,48.037 230.464,47.878 233.323,47.871C238.594,47.859 243.995,48.466 248.559,49.147C252.672,49.76 256.917,50.788 260.712,51.956C264.349,53.075 268.043,54.378 271.328,56.152C274.597,57.918 278.078,60.302 280.419,62.602C282.526,64.672 284.258,67.386 285.375,69.95C286.469,72.464 286.917,75.406 287.121,77.987C287.317,80.47 286.597,85.439 286.597,85.439C286.597,85.439 289.556,80.279 290.56,77.285C291.59,74.213 292.251,70.225 291.798,66.703C291.341,63.15 289.82,59.166 287.815,55.969C285.811,52.772 282.915,49.75 279.769,47.521C276.622,45.292 272.773,43.605 268.937,42.596C264.639,41.465 259.002,40.902 253.981,40.736C248.774,40.564 242.913,40.873 237.694,41.566C232.607,42.241 227.537,43.413 222.664,44.891C217.984,46.31 208.85,49.837 208.85,49.837C208.85,49.837 212.892,49.151 214.651,48.924Z" style="fill:rgb(142,33,36);"/>
    </g>
</svg>
